<svg width="20" height="20" viewBox="0 0 20 20" fill="none" xmlns="http://www.w3.org/2000/svg">
<path fill-rule="evenodd" clip-rule="evenodd" d="M5.00002 4.99998H15C15.2977 4.99992 15.5899 5.07957 15.8464 5.23066C16.1028 5.38175 16.3141 5.59876 16.4584 5.85915C16.3528 5.8865 16.2537 5.93436 16.1667 5.99998L10 10.625L3.83335 5.99998C3.74631 5.93436 3.64721 5.8865 3.54169 5.85915C3.6859 5.59876 3.89721 5.38175 4.15367 5.23066C4.41013 5.07957 4.70237 4.99992 5.00002 4.99998ZM3.33335 7.70831V13.3333C3.33335 13.7753 3.50895 14.1993 3.82151 14.5118C4.13407 14.8244 4.55799 15 5.00002 15H15C15.442 15 15.866 14.8244 16.1785 14.5118C16.4911 14.1993 16.6667 13.7753 16.6667 13.3333V7.70831L10.5 12.3333C10.3558 12.4415 10.1803 12.5 10 12.5C9.81971 12.5 9.64427 12.4415 9.50002 12.3333L3.33335 7.70831ZM1.66669 6.66665C1.66669 5.78259 2.01788 4.93474 2.643 4.30962C3.26812 3.6845 4.11597 3.33331 5.00002 3.33331H15C15.8841 3.33331 16.7319 3.6845 17.357 4.30962C17.9822 4.93474 18.3334 5.78259 18.3334 6.66665V13.3333C18.3334 14.2174 17.9822 15.0652 17.357 15.6903C16.7319 16.3155 15.8841 16.6666 15 16.6666H5.00002C4.11597 16.6666 3.26812 16.3155 2.643 15.6903C2.01788 15.0652 1.66669 14.2174 1.66669 13.3333V6.66665Z" fill="#B9BEC7"/>
</svg>
