<svg width="20" height="20" viewBox="0 0 20 20" fill="none" xmlns="http://www.w3.org/2000/svg">
<path fill-rule="evenodd" clip-rule="evenodd" d="M5.83331 5.83335C5.83331 4.72828 6.2723 3.66848 7.0537 2.88708C7.8351 2.10567 8.89491 1.66669 9.99998 1.66669C11.105 1.66669 12.1649 2.10567 12.9463 2.88708C13.7277 3.66848 14.1666 4.72828 14.1666 5.83335V7.50002C14.8297 7.50002 15.4656 7.76341 15.9344 8.23225C16.4033 8.70109 16.6666 9.33698 16.6666 10V14.31C16.6663 14.9727 16.4028 15.6082 15.9341 16.0767L14.4108 17.6017C13.9419 18.0703 13.3062 18.3334 12.6433 18.3334H7.35665C6.69395 18.333 6.05851 18.0695 5.58998 17.6009L4.06498 16.0775C3.59641 15.6087 3.33323 14.9729 3.33331 14.31V10C3.33331 9.33698 3.59671 8.70109 4.06555 8.23225C4.53439 7.76341 5.17027 7.50002 5.83331 7.50002V5.83335ZM5.83331 9.16669C5.6123 9.16669 5.40034 9.25448 5.24406 9.41076C5.08778 9.56705 4.99998 9.77901 4.99998 10V14.31C5.00003 14.531 5.08786 14.7429 5.24415 14.8992L6.76748 16.4225C6.92372 16.5788 7.13565 16.6666 7.35665 16.6667H12.6433C12.8643 16.6666 13.0762 16.5788 13.2325 16.4225L14.7558 14.8992C14.9121 14.7429 14.9999 14.531 15 14.31V10C15 9.77901 14.9122 9.56705 14.7559 9.41076C14.5996 9.25448 14.3877 9.16669 14.1666 9.16669H5.83331ZM12.5 7.50002H7.49998V5.83335C7.49998 5.17031 7.76337 4.53443 8.23221 4.06559C8.70105 3.59675 9.33694 3.33335 9.99998 3.33335C10.663 3.33335 11.2989 3.59675 11.7677 4.06559C12.2366 4.53443 12.5 5.17031 12.5 5.83335V7.50002ZM9.99998 11.6667C10.221 11.6667 10.433 11.7545 10.5892 11.9108C10.7455 12.067 10.8333 12.279 10.8333 12.5V14.1667C10.8333 14.3877 10.7455 14.5997 10.5892 14.7559C10.433 14.9122 10.221 15 9.99998 15C9.77897 15 9.567 14.9122 9.41072 14.7559C9.25444 14.5997 9.16665 14.3877 9.16665 14.1667V12.5C9.16665 12.279 9.25444 12.067 9.41072 11.9108C9.567 11.7545 9.77897 11.6667 9.99998 11.6667Z" fill="#B9BEC7"/>
</svg>
