<svg width="16" height="17" viewBox="0 0 16 17" fill="none" xmlns="http://www.w3.org/2000/svg">
<g clip-path="url(#clip0_2002_10687)">
<path fill-rule="evenodd" clip-rule="evenodd" d="M0 6.5C0 4.9087 0.632141 3.38258 1.75736 2.25736C2.88258 1.13214 4.4087 0.5 6 0.5L10 0.5C11.5913 0.5 13.1174 1.13214 14.2426 2.25736C15.3679 3.38258 16 4.9087 16 6.5V10.5C16 12.0913 15.3679 13.6174 14.2426 14.7426C13.1174 15.8679 11.5913 16.5 10 16.5H6C4.4087 16.5 2.88258 15.8679 1.75736 14.7426C0.632141 13.6174 0 12.0913 0 10.5L0 6.5ZM2 6.5C2 5.43913 2.42143 4.42172 3.17157 3.67157C3.92172 2.92143 4.93913 2.5 6 2.5H10C11.0609 2.5 12.0783 2.92143 12.8284 3.67157C13.5786 4.42172 14 5.43913 14 6.5V10.5C14 11.5609 13.5786 12.5783 12.8284 13.3284C12.0783 14.0786 11.0609 14.5 10 14.5H6C4.93913 14.5 3.92172 14.0786 3.17157 13.3284C2.42143 12.5783 2 11.5609 2 10.5V6.5ZM7.117 6.017C6.997 6.267 6.777 6.5 6.5 6.5H6C5.448 6.5 4.984 6.04 5.164 5.518C5.3966 4.84804 5.85895 4.2821 6.46906 3.92054C7.07917 3.55899 7.79761 3.42519 8.49697 3.54286C9.19633 3.66054 9.83141 4.0221 10.2896 4.56341C10.7478 5.10472 10.9995 5.79081 11 6.5C11 7.626 10.38 8.363 9.462 8.808C9.192 8.94 9 9.2 9 9.5C9 9.76522 8.89464 10.0196 8.70711 10.2071C8.51957 10.3946 8.26522 10.5 8 10.5C7.73478 10.5 7.48043 10.3946 7.29289 10.2071C7.10536 10.0196 7 9.76522 7 9.5V9C7 8.172 7.724 7.687 8.482 7.353C8.787 7.22 9 6.967 9 6.5C9 6.23478 8.89464 5.98043 8.70711 5.79289C8.51957 5.60536 8.26522 5.5 8 5.5C7.488 5.5 7.239 5.762 7.117 6.017ZM8 13.5C8.26522 13.5 8.51957 13.3946 8.70711 13.2071C8.89464 13.0196 9 12.7652 9 12.5C9 12.2348 8.89464 11.9804 8.70711 11.7929C8.51957 11.6054 8.26522 11.5 8 11.5C7.73478 11.5 7.48043 11.6054 7.29289 11.7929C7.10536 11.9804 7 12.2348 7 12.5C7 12.7652 7.10536 13.0196 7.29289 13.2071C7.48043 13.3946 7.73478 13.5 8 13.5Z" fill="white"/>
</g>
<defs>
<clipPath id="clip0_2002_10687">
<rect width="16" height="16" fill="white" transform="translate(0 0.5)"/>
</clipPath>
</defs>
</svg>
