<svg width="124" height="30" viewBox="0 0 124 30" fill="none" xmlns="http://www.w3.org/2000/svg">
<g clip-path="url(#clip0_2002_10699)">
<g clip-path="url(#clip1_2002_10699)">
<g clip-path="url(#clip2_2002_10699)">
<mask id="mask0_2002_10699" style="mask-type:luminance" maskUnits="userSpaceOnUse" x="0" y="0" width="124" height="30">
<path d="M0 0H123.333V30H0V0Z" fill="white"/>
</mask>
<g mask="url(#mask0_2002_10699)">
<path d="M0.0740051 22.06L4.48401 18.682C6.82601 21.739 9.314 23.148 12.085 23.148C14.841 23.148 17.259 21.756 19.496 18.722L23.969 22.018C20.741 26.393 16.729 28.704 12.085 28.704C7.455 28.704 3.405 26.407 0.0750051 22.059L0.0740051 22.06Z" fill="url(#paint0_linear_2002_10699)"/>
<path d="M12.07 7.378L4.22201 14.14L0.594009 9.933L12.087 0.0299988L23.49 9.94L19.845 14.133L12.071 7.378H12.07Z" fill="url(#paint1_linear_2002_10699)"/>
<path d="M40.878 24.532C38.198 24.532 35.965 23.663 34.154 21.926C32.343 20.165 31.45 17.907 31.45 15.152C31.45 12.374 32.367 10.091 34.178 8.30398C36.015 6.49298 38.248 5.59998 40.904 5.59998C44.18 5.59998 47.081 7.01298 48.77 9.22198L45.815 12.324C44.4 10.81 42.86 10.041 41.2 10.041C39.785 10.041 38.619 10.511 37.65 11.48C36.707 12.448 36.237 13.665 36.237 15.128C36.237 16.543 36.707 17.733 37.65 18.702C38.619 19.644 39.785 20.115 41.174 20.115C42.985 20.115 44.574 19.32 45.889 17.757L48.967 20.711C48.122 21.828 46.981 22.746 45.567 23.465C44.152 24.185 42.589 24.532 40.876 24.532H40.878ZM54.174 5.32598V24.259H49.807V5.32598H54.174ZM58.313 9.34398C56.85 9.34398 55.783 8.27798 55.783 6.81398C55.783 5.39998 56.9 4.33398 58.313 4.33398C59.728 4.33398 60.82 5.39998 60.82 6.81398C60.82 8.27798 59.728 9.34598 58.313 9.34598V9.34398ZM60.523 10.561V24.26H56.13V10.561H60.523ZM68.93 24.557C66.77 24.557 65.033 23.887 63.67 22.547C62.33 21.207 61.66 19.494 61.66 17.385C61.66 15.275 62.33 13.565 63.695 12.225C65.059 10.883 66.82 10.215 69.004 10.215C71.857 10.215 74.364 11.604 75.53 14.209L72.031 16.046C71.337 14.88 70.369 14.283 69.104 14.283C68.185 14.283 67.441 14.582 66.844 15.178C66.5612 15.4706 66.339 15.8162 66.19 16.195C66.0411 16.5737 65.9683 16.9781 65.976 17.385C65.976 19.196 67.291 20.537 69.054 20.537C70.319 20.537 71.485 19.843 71.981 18.776L75.481 20.859C74.289 23.143 71.833 24.557 68.93 24.557ZM90.713 24.259H85.5L81.454 18.824L80.809 19.42V24.26H76.445V5.32498H80.811V14.531L84.93 10.561H90.265L84.385 16.069L90.713 24.259ZM91.006 17.137V5.91998H95.67V17.063C95.67 19.123 96.861 20.115 98.574 20.115C100.261 20.115 101.452 19.072 101.452 17.063V5.91998H106.143V17.137C106.143 22.547 102.394 24.581 98.574 24.581C94.778 24.581 91.006 22.546 91.006 17.137ZM116.509 10.215C118.47 10.215 120.059 10.909 121.324 12.298C122.589 13.663 123.209 15.376 123.209 17.385C123.209 19.396 122.565 21.107 121.3 22.522C120.033 23.912 118.446 24.607 116.535 24.607C115.02 24.607 113.706 24.111 112.639 23.119V29.893H108.246V10.56H112.565V11.827C113.632 10.758 114.946 10.214 116.509 10.214V10.215ZM118.743 17.435C118.743 15.648 117.454 14.283 115.667 14.283C113.88 14.283 112.565 15.648 112.565 17.435C112.565 18.304 112.861 19.048 113.433 19.669C114.028 20.289 114.772 20.587 115.667 20.587C116.559 20.587 117.304 20.289 117.874 19.669C118.443 19.0656 118.755 18.2644 118.744 17.435H118.743Z" fill="#111111"/>
</g>
</g>
</g>
</g>
<defs>
<linearGradient id="paint0_linear_2002_10699" x1="0.0740051" y1="25.498" x2="23.968" y2="25.498" gradientUnits="userSpaceOnUse">
<stop stop-color="#8930FD"/>
<stop offset="1" stop-color="#49CCF9"/>
</linearGradient>
<linearGradient id="paint1_linear_2002_10699" x1="0.594009" y1="9.627" x2="23.489" y2="9.627" gradientUnits="userSpaceOnUse">
<stop stop-color="#FF02F0"/>
<stop offset="1" stop-color="#FFC800"/>
</linearGradient>
<clipPath id="clip0_2002_10699">
<rect width="124" height="30" fill="white"/>
</clipPath>
<clipPath id="clip1_2002_10699">
<rect width="124" height="30" fill="white"/>
</clipPath>
<clipPath id="clip2_2002_10699">
<rect width="124" height="30" fill="white"/>
</clipPath>
</defs>
</svg>
